<svg xmlns="http://www.w3.org/2000/svg" viewBox="0 0 15.66 15.66"><defs><style>.cls-1{fill:#999;stroke:#999;stroke-miterlimit:10;}.cls-2{isolation:isolate;}.cls-3{fill:#fff;}</style></defs><title>conf_dark</title><g id="Layer_2" data-name="Layer 2"><g id="Layer_1-2" data-name="Layer 1"><g id="Layer_2-2" data-name="Layer 2"><path class="cls-1" d="M7.83.5A7.33,7.33,0,1,1,.5,7.83,7.33,7.33,0,0,1,7.83.5Z"/><g class="cls-2"><path class="cls-3" d="M8.65,10.58A1.14,1.14,0,0,1,9,11.4a1.17,1.17,0,0,1-.32.83,1.08,1.08,0,0,1-.83.34A1.11,1.11,0,0,1,7,12.23a1.16,1.16,0,0,1-.33-.83A1.14,1.14,0,0,1,7,10.58a1.11,1.11,0,0,1,.83-.34A1.09,1.09,0,0,1,8.65,10.58ZM8.9,3.18,8.62,9H7L6.75,3.18Z"/></g></g></g></g></svg>