<svg xmlns="http://www.w3.org/2000/svg" viewBox="0 0 11.6 16"><defs><style>.cls-1{fill:#666;}.cls-2{fill:#e6e6e6;}.cls-3{fill:none;stroke:#666;stroke-miterlimit:10;}</style></defs><title>download_image</title><g id="Layer_2" data-name="Layer 2"><g id="Layer_1-2" data-name="Layer 1"><rect class="cls-1" width="11.6" height="11.6"/><polygon class="cls-1" points="0 0 0 11.6 3.4 11.6 3.4 6.7 8.3 6.7 8.3 11.6 11.6 11.6 11.6 0 0 0"/><polygon class="cls-2" points="11.1 11.6 8.2 4.8 6.8 5.8 4.8 1.8 0.5 11.6 11.1 11.6"/><path class="cls-1" d="M2.9,13.3s-.4-.3,0-.3H4.5V9.1c0-.1.1-.2.3-.2H7c.1,0,.2.1.3.2v3.7H8.8c.5,0,.2.3.2.3L5.9,16Z"/><line class="cls-3" x1="0.5" y1="11.1" x2="11.2" y2="11.1"/><circle class="cls-2" cx="9.6" cy="2.4" r="1"/></g></g></svg>