<svg xmlns="http://www.w3.org/2000/svg" viewBox="0 0 11.6 16"><defs><style>.cls-1{fill:#666;}.cls-2,.cls-3,.cls-4{fill:none;}.cls-3{stroke:#fff;}.cls-3,.cls-4{stroke-miterlimit:10;}.cls-4{stroke:#666;stroke-width:0.75px;}</style></defs><title>download_file</title><g id="Layer_2" data-name="Layer 2"><g id="Layer_1-2" data-name="Layer 1"><path class="cls-1" d="M2.9,13.3s-.4-.3,0-.3H4.5V9.2c0-.1.1-.2.3-.2H7c.1,0,.2.1.3.2v3.7H8.8c.5,0,.2.3.2.3L6.1,16Z"/><polygon class="cls-2" points="0 0 0 11.6 3.4 11.6 3.4 6.7 8.3 6.7 8.3 11.6 11.6 11.6 11.6 0 0 0"/><line class="cls-3" x1="0.5" y1="11.1" x2="11.2" y2="11.1"/><rect class="cls-2" width="11.6" height="11.6"/><path class="cls-1" d="M7.8,1l2.8,2.9v6.8H1V1.1H7.8M8.2,0H0V11.6H11.6V3.4L8.2,0Z"/><line class="cls-4" x1="7.7" y1="0.4" x2="7.7" y2="4"/><line class="cls-4" x1="11.2" y1="4" x2="7.3" y2="4"/></g></g></svg>