<svg xmlns="http://www.w3.org/2000/svg" viewBox="0 0 16.6 16.6"><defs><style>.cls-1{fill:none;stroke:#666;stroke-miterlimit:10;}.cls-2{fill:#666;}</style></defs><title>About</title><g id="Layer_2" data-name="Layer 2"><g id="Layer_1-2" data-name="Layer 1"><path class="cls-1" d="M8.3.5a7.8,7.8,0,1,0,7.8,7.8A7.81,7.81,0,0,0,8.3.5"/><path class="cls-2" d="M6,7.2a4.3,4.3,0,0,1,1.8-.5c.9,0,1.7.5,1.7,1.3a9,9,0,0,1-.3,1.9s-.2.9-.3,1.2-.2.8.2,1,1.2-.4,1.2-.4l-.4,1.1a4,4,0,0,1-1.5.4,2.35,2.35,0,0,1-1.6-.5,2,2,0,0,1-.4-1.9c.1-.5.8-2.5.6-3S5.8,8,5.8,8Z"/><path class="cls-2" d="M7.3,4.3A1.42,1.42,0,0,1,8.7,3,1.33,1.33,0,0,1,9.9,4.4,1.42,1.42,0,0,1,8.5,5.7,1.17,1.17,0,0,1,7.3,4.3"/></g></g></svg>