<svg xmlns="http://www.w3.org/2000/svg" viewBox="0 0 77.39 77.39"><title>link</title><g id="Layer_2" data-name="Layer 2"><g id="Layer_1-2" data-name="Layer 1"><path d="M74.76,14.3,63.09,2.63a9,9,0,0,0-12.73,0L31.09,21.9a3,3,0,0,0,4.24,4.24L54.6,6.87a3,3,0,0,1,4.24,0L70.51,18.54a3,3,0,0,1,0,4.24L51.25,42.05a3,3,0,1,0,4.24,4.24L74.76,27A9,9,0,0,0,74.76,14.3ZM41.7,51.6,22.78,70.51a3.07,3.07,0,0,1-4.24,0L6.87,58.85a3,3,0,0,1,0-4.24L25.79,35.69a3,3,0,0,0-4.24-4.24L2.63,50.36a9,9,0,0,0,0,12.73L14.3,74.76a9,9,0,0,0,12.73,0L45.94,55.84A3,3,0,1,0,41.7,51.6ZM22.52,54.87a3,3,0,0,0,4.24,0L54.87,26.76a3,3,0,1,0-4.24-4.24L22.52,50.63A3,3,0,0,0,22.52,54.87Z"/></g></g></svg>