<svg xmlns="http://www.w3.org/2000/svg" viewBox="0 0 77.04 77.04"><title>broken_link</title><g id="Layer_2" data-name="Layer 2"><g id="Layer_1-2" data-name="Layer 1"><path d="M63.42,2.62a9,9,0,0,0-12.7,0l-15.1,15.1a9,9,0,0,0,0,12.7l1.2,1.2a3,3,0,1,0,4.3-4.1l-1.2-1.2a3,3,0,0,1,0-4.2l15-15.2a3.1,3.1,0,0,1,4.2,0l11,11a3,3,0,0,1,0,4.2L55,37.22a3.1,3.1,0,0,1-4.2,0l-1.3-1.3a3,3,0,0,0-4.2,4.2l1.2,1.3a9,9,0,0,0,12.7,0l15.2-15.1a9,9,0,0,0,0-12.7Z"/><path d="M40.22,45.32a3,3,0,1,0-4.3,4.2l1.2,1.2a3,3,0,0,1,0,4.2l-15,15.2a3,3,0,0,1-4.2,0l-11-11a3,3,0,0,1,0-4.2L22,39.82a3,3,0,0,1,4.2,0l1.3,1.3a3,3,0,0,0,4.2-4.2l-1.2-1.3a9,9,0,0,0-12.7,0L2.62,50.72a9,9,0,0,0,0,12.7l11,11a9,9,0,0,0,12.7,0l15.1-15.1a9,9,0,0,0,0-12.7Z"/><path d="M55.62,51.42a3,3,0,0,0-4.2,4.2l14.7,14.7a3,3,0,0,0,4.2-4.2Z"/><path d="M6.72,10.92l14.7,14.7a3,3,0,0,0,4.2-4.2L10.92,6.72a3,3,0,0,0-4.2,4.2Z"/></g></g></svg>