<svg xmlns="http://www.w3.org/2000/svg" viewBox="0 0 11.6 16.31"><defs><style>.cls-1{fill:#666;}</style></defs><title>Asset 6</title><g id="Layer_2" data-name="Layer 2"><g id="socials"><polygon class="cls-1" points="11.6 16.31 11.6 4.71 7.54 4.71 7.54 5.86 10.5 5.86 10.5 15.14 1.21 15.14 1.21 5.86 4.06 5.86 4.06 4.71 0 4.71 0 16.31 11.6 16.31"/><path class="cls-1" d="M3,3.42a.4.4,0,0,0,.59,0L5.3,1.73V6.68a.41.41,0,0,0,.41.42h.18a.41.41,0,0,0,.41-.42V1.73L8,3.42a.4.4,0,0,0,.59,0l.11-.1a.43.43,0,0,0,0-.6L6.21.24h0L6.1.12a.43.43,0,0,0-.6,0L5.39.23h0L2.9,2.72a.44.44,0,0,0,0,.6Z"/></g></g></svg>