<svg xmlns="http://www.w3.org/2000/svg" viewBox="0 0 13 9.9"><defs><style>.cls-1{fill:#666;}</style></defs><title>sm_email</title><g id="Layer_2" data-name="Layer 2"><g id="Layer_1-2" data-name="Layer 1"><g id="Ft1FJm.tif"><path class="cls-1" d="M13,0V9.9H0V0ZM1.6.9h0C3.1,2.5,4.6,4,6.1,5.5a.75.75,0,0,0,.9,0L11.5,1l.1-.1Zm-.2,8h9.9L8,5.6l-.6.6c-.2.1-.4.3-.6.4a1.56,1.56,0,0,1-1.6-.4l-.6-.6A19.93,19.93,0,0,1,1.4,8.9ZM.8,8.2C1.9,7.1,3,6,4.1,4.8L.8,1.5ZM12.1,1.7C11,2.7,9.9,3.8,8.8,4.9l3.3,3.3Z"/></g></g></g></svg>