<svg xmlns="http://www.w3.org/2000/svg" viewBox="0 0 11.2 10.2"><defs><style>.cls-1{fill:#666;}</style></defs><title>sm_linkedin</title><g id="Layer_2" data-name="Layer 2"><g id="Layer_1-2" data-name="Layer 1"><g id="linkedin"><path class="cls-1" d="M2.6,10.2H.4V3.3H2.6ZM1.4,2.4h0A1.25,1.25,0,0,1,0,1.2H0C0,.4.5,0,1.4,0A1.4,1.4,0,0,1,2.8,1.2,1.27,1.27,0,0,1,1.4,2.4Zm9.8,7.8H8.7V6.7c0-1-.4-1.6-1.2-1.6a1.48,1.48,0,0,0-1.2.8c-.1.1,0,.4,0,.6v3.7H3.8V3.3H6.3V4.4c.1-.5.8-1.1,2.2-1.1s2.7,1,2.7,3.1Z"/></g></g></g></svg>