<svg xmlns="http://www.w3.org/2000/svg" viewBox="0 0 14.1 12.4"><defs><style>.cls-1{fill:#666;}</style></defs><title>sm_twitter</title><g id="Layer_2" data-name="Layer 2"><g id="Layer_1-2" data-name="Layer 1"><g id="twitter"><path class="cls-1" d="M14.1,1.5a8.45,8.45,0,0,1-1.7.5A3,3,0,0,0,13.7.2a6.39,6.39,0,0,1-1.9.8A2.81,2.81,0,0,0,9.7,0,2.89,2.89,0,0,0,6.8,3.1v.1a2.2,2.2,0,0,0,.1.8A8,8,0,0,1,.9.7,4.19,4.19,0,0,0,.5,2.2,3.32,3.32,0,0,0,1.8,4.8,1.84,1.84,0,0,1,.5,4.4h0A3.21,3.21,0,0,0,2.8,7.5a2.2,2.2,0,0,1-.8.1.75.75,0,0,1-.5-.1A2.77,2.77,0,0,0,4.2,9.7,5.33,5.33,0,0,1,.6,11H0a8,8,0,0,0,4.5,1.4c5.4,0,8.3-4.9,8.3-9V3Z"/></g></g></g></svg>